<svg xmlns="http://www.w3.org/2000/svg" width="820" height="276" viewBox="0 0 820 276"><text transform="translate(287)" fill="#a2108f" font-size="110" font-family="PlayfairDisplay-SemiBold, Playfair Display" font-weight="600"><tspan x="0" y="119">Fontane</tspan><tspan font-size="70"><tspan x="0" y="224" xml:space="preserve"> di  </tspan><tspan y="224" font-size="110">Roma</tspan></tspan></text><g transform="translate(59.772 20.662)" opacity="0.896"><g transform="translate(12.889 15.998)"><path d="M202.782,170.67H170.559v-6.445a3.222,3.222,0,1,0-6.445,0v6.445H140.659l-4.3-12.889h6.807a17.742,17.742,0,0,0,17.723-17.723v-.739a6.445,6.445,0,0,1,3.222,5.573v6.445a3.222,3.222,0,1,0,6.445,0v-6.445A12.9,12.9,0,0,0,157.67,132H137.436l-4.31-12.925a22.584,22.584,0,0,0,21.321-22.521V92.78a9.673,9.673,0,0,0,3.222-1.915v15.359a3.222,3.222,0,0,0,6.445,0V86.89A12.9,12.9,0,0,0,151.225,74H125.447V64.333a9.667,9.667,0,0,1,19.334,0,3.222,3.222,0,1,0,6.445,0,16.1,16.1,0,0,0-25.778-12.88V28.888a6.445,6.445,0,1,1,12.889,0,3.222,3.222,0,0,0,6.445,0,12.881,12.881,0,0,0-22.556-8.512,12.881,12.881,0,0,0-22.556,8.512,3.222,3.222,0,1,0,6.445,0,6.445,6.445,0,1,1,12.889,0V51.453a16.1,16.1,0,0,0-25.778,12.88,3.222,3.222,0,1,0,6.445,0,9.667,9.667,0,0,1,19.334,0V74H93.224A12.9,12.9,0,0,0,80.335,86.89v19.334a3.222,3.222,0,0,0,6.445,0V90.865A9.673,9.673,0,0,0,90,92.78v3.777a22.584,22.584,0,0,0,21.32,22.521L107.013,132H86.779A12.9,12.9,0,0,0,73.89,144.891v6.445a3.222,3.222,0,1,0,6.445,0v-6.445a6.445,6.445,0,0,1,3.222-5.573v.739A17.742,17.742,0,0,0,101.28,157.78h6.807l-4.3,12.889H80.335v-6.445a3.222,3.222,0,1,0-6.445,0v6.445H41.667a9.667,9.667,0,0,0,0,19.334H41.9a22.588,22.588,0,0,0,22.322,19.334h116A22.588,22.588,0,0,0,202.548,190h.234a9.667,9.667,0,1,0,0-19.334ZM90,83.667a3.227,3.227,0,0,1,2.893-3.205,3.173,3.173,0,0,1,.329-.017h58a3.175,3.175,0,0,1,.329.017,3.222,3.222,0,0,1-.329,6.428h-58A3.226,3.226,0,0,1,90,83.667Zm6.445,12.889V93.334H148v3.222a16.13,16.13,0,0,1-16.112,16.112H112.558A16.13,16.13,0,0,1,96.446,96.557ZM130.643,132H113.806l4.3-12.889h8.244ZM101.28,151.336A11.291,11.291,0,0,1,90,140.058v-1.611h64.446v1.611a11.291,11.291,0,0,1-11.278,11.278Zm32.586,19.334H110.584l4.3-12.889h14.689Zm46.361,32.223h-116A16.14,16.14,0,0,1,48.434,190H196.016A16.14,16.14,0,0,1,180.226,202.893Zm22.556-19.334H41.667a3.222,3.222,0,0,1,0-6.445H202.782a3.222,3.222,0,0,1,0,6.445Z" transform="translate(-32 -15.998)" fill="#a2108f"/><path d="M206.445,70.445V67.222a3.222,3.222,0,1,0-6.445,0v3.222a3.222,3.222,0,1,0,6.445,0Z" transform="translate(-132.331 -44.665)" fill="#a2108f"/><path d="M299.222,64A3.222,3.222,0,0,0,296,67.222v3.222a3.222,3.222,0,0,0,6.445,0V67.222A3.222,3.222,0,0,0,299.222,64Z" transform="translate(-189.664 -44.665)" fill="#a2108f"/><path d="M158.445,270.445v-3.222a3.222,3.222,0,0,0-6.445,0v3.222a3.222,3.222,0,1,0,6.445,0Z" transform="translate(-103.665 -164.108)" fill="#a2108f"/><path d="M347.222,264A3.222,3.222,0,0,0,344,267.222v3.222a3.222,3.222,0,1,0,6.445,0v-3.222A3.222,3.222,0,0,0,347.222,264Z" transform="translate(-218.33 -164.108)" fill="#a2108f"/><path d="M232.112,227.222A3.222,3.222,0,0,0,228.889,224h-9.667a3.222,3.222,0,0,0,0,6.445h9.667A3.222,3.222,0,0,0,232.112,227.222Z" transform="translate(-141.887 -140.219)" fill="#a2108f"/><path d="M275.222,230.445h3.222a3.222,3.222,0,0,0,0-6.445h-3.222a3.222,3.222,0,1,0,0,6.445Z" transform="translate(-175.331 -140.219)" fill="#a2108f"/></g></g><g fill="none" stroke="#a2108f" stroke-width="4"><rect width="820" height="276" stroke="none"/><rect x="2" y="2" width="816" height="272" fill="none"/></g></svg>