<?xml version="1.0" encoding="UTF-8" standalone="no"?>
<svg
   xmlns:dc="http://purl.org/dc/elements/1.1/"
   xmlns:cc="http://creativecommons.org/ns#"
   xmlns:rdf="http://www.w3.org/1999/02/22-rdf-syntax-ns#"
   xmlns:svg="http://www.w3.org/2000/svg"
   xmlns="http://www.w3.org/2000/svg"
   xmlns:xlink="http://www.w3.org/1999/xlink"
   xmlns:sodipodi="http://sodipodi.sourceforge.net/DTD/sodipodi-0.dtd"
   xmlns:inkscape="http://www.inkscape.org/namespaces/inkscape"
   viewBox="0 0 68.959999 95.475906"
   x="0px"
   y="0px"
   version="1.1"
   id="svg4576"
   sodipodi:docname="map-pin-opened.svg"
   inkscape:version="0.92.4 (f8dce91, 2019-08-02)"
   width="68.959999"
   height="95.475906"
   inkscape:export-filename="/home/rf/test-icon.png"
   inkscape:export-xdpi="96"
   inkscape:export-ydpi="96">
  <metadata
     id="metadata4582">
    <rdf:RDF>
      <cc:Work
         rdf:about="">
        <dc:format>image/svg+xml</dc:format>
        <dc:type
           rdf:resource="http://purl.org/dc/dcmitype/StillImage" />
        <dc:title>Artboard 4</dc:title>
      </cc:Work>
    </rdf:RDF>
  </metadata>
  <defs
     id="defs4580">
    <linearGradient
       inkscape:collect="always"
       id="linearGradient4658">
      <stop
         style="stop-color:#2c0672;stop-opacity:1"
         offset="0"
         id="stop4654" />
      <stop
         style="stop-color:#1e94e5;stop-opacity:1"
         offset="1"
         id="stop4656" />
    </linearGradient>
    <linearGradient
       inkscape:collect="always"
       xlink:href="#linearGradient4658"
       id="linearGradient4660"
       gradientUnits="userSpaceOnUse"
       x1="48.700359"
       y1="97.025963"
       x2="48.700359"
       y2="4.002708" />
  </defs>
  <sodipodi:namedview
     pagecolor="#ffffff"
     bordercolor="#666666"
     borderopacity="1"
     objecttolerance="10"
     gridtolerance="10"
     guidetolerance="10"
     inkscape:pageopacity="0"
     inkscape:pageshadow="2"
     inkscape:window-width="1366"
     inkscape:window-height="740"
     id="namedview4578"
     showgrid="false"
     inkscape:zoom="4.472"
     inkscape:cx="-3.5016883"
     inkscape:cy="29.142925"
     inkscape:window-x="0"
     inkscape:window-y="0"
     inkscape:window-maximized="1"
     inkscape:current-layer="g4574"
     fit-margin-top="1"
     fit-margin-left="1"
     fit-margin-right="1"
     fit-margin-bottom="1"
     showborder="false" />
  <title
     id="title4570">Artboard 4</title>
  <path
     style="opacity:1;fill:#ffffff;fill-opacity:1;stroke:none;stroke-width:1.37751293;stroke-miterlimit:4;stroke-dasharray:none;stroke-opacity:1"
     id="path5217"
     sodipodi:type="arc"
     sodipodi:cx="34.48"
     sodipodi:cy="33.273048"
     sodipodi:rx="17.351564"
     sodipodi:ry="17.351564"
     sodipodi:start="0"
     sodipodi:end="6.2831679"
     d="M 51.831564,33.273048 A 17.351564,17.351564 0 0 1 34.480075,50.624613 17.351564,17.351564 0 0 1 17.128435,33.273199 17.351564,17.351564 0 0 1 34.479773,15.921484 17.351564,17.351564 0 0 1 51.831564,33.272746 L 34.48,33.273048 Z" />
  <g
     data-name="Layer 5"
     id="g4574"
     style="fill:url(#linearGradient4660);fill-opacity:1"
     transform="translate(-15.5,-3)">
    <path
       d="M 50,4 A 33.54,33.54 0 0 0 16.5,37.5 c 0,10.06 5.31,17.88 10.45,25.44 0.84,1.23 1.67,2.46 2.47,3.69 3.71,5.68 7.28,11.63 10.73,17.37 q 2.55,4.26 5.12,8.5 l 2.16,3.54 a 3,3 0 0 0 5.12,0 c 2.26,-3.7 4.49,-7.48 6.66,-11.13 3.65,-6.17 7.42,-12.55 11.38,-18.64 1,-1.57 2.09,-3.11 3.13,-4.6 l 0.74,-1.07 c 4.95,-7.15 9,-13.83 9,-23.12 A 33.54,33.54 0 0 0 50,4 Z m 0,49 A 17,17 0 1 1 67,36 17,17 0 0 1 50,53 Z"
       id="path4572"
       style="fill:url(#linearGradient4660);fill-opacity:1"
       inkscape:connector-curvature="0" />
  </g>
</svg>
